<?xml version="1.0" standalone="no"?>
<!DOCTYPE svg PUBLIC "-//W3C//DTD SVG 20010904//EN"
 "http://www.w3.org/TR/2001/REC-SVG-20010904/DTD/svg10.dtd">
<svg version="1.0" xmlns="http://www.w3.org/2000/svg"
 width="429.000000pt" height="429.000000pt" viewBox="0 0 429.000000 429.000000"
 preserveAspectRatio="xMidYMid meet">
<metadata>
Created by potrace 1.11, written by Peter Selinger 2001-2013
</metadata>
<g transform="translate(0.000000,429.000000) scale(0.100000,-0.100000)"
fill="#000000" stroke="none">
<path d="M2174 3415 l1 -395 -30 -1 c-16 0 -302 0 -635 0 -495 0 -617 -3 -670
-15 -235 -53 -405 -219 -466 -454 -15 -58 -17 -141 -17 -725 0 -363 3 -682 7
-708 18 -125 80 -243 180 -342 81 -79 158 -124 265 -154 73 -20 98 -21 865
-21 837 0 824 0 922 46 83 40 163 144 197 259 18 62 17 55 17 118 l1 52 22
-65 c44 -131 125 -233 246 -312 134 -87 158 -92 528 -96 l321 -3 0 319 0 320
-227 1 c-124 0 -234 1 -243 1 -17 0 -18 68 -18 1285 l0 1285 -634 0 -634 0 2
-395z m-3 -1047 c3 -91 0 -1121 -4 -1124 -4 -5 -624 -7 -1089 -4 l-78 0 0 570
0 570 585 0 c461 0 585 -3 586 -12z"/>
</g>
</svg>
